<svg xmlns="http://www.w3.org/2000/svg" width="154" height="89.802" viewBox="0 0 154 89.802"><defs><style>.a,.b{fill:#fff;}.b{font-size:33px;font-family:SegoeUI, Segoe UI;}</style></defs><g transform="translate(-157.57 -362.628)"><path class="a" d="M172.956,362.628a6.5,6.5,0,0,1,4.989,1.985,6.854,6.854,0,0,1,1.731,4.814v4.142a6.624,6.624,0,0,1-1.964,4.814,6.42,6.42,0,0,1-4.756,2h-2.479v10.754h-4.272v-28.51Zm2.557,6.878a2.433,2.433,0,0,0-.67-1.8,2.339,2.339,0,0,0-1.778-.687h-2.588v9.112h2.588a2.323,2.323,0,0,0,1.731-.719,2.419,2.419,0,0,0,.717-1.751Z" transform="translate(-7.093)"/><path class="a" d="M267.353,391.138H255.674v-28.51h4.272v24.243h7.406Z" transform="translate(-80.586)"/><path class="a" d="M337.723,384.589l-1.045,6.549h-4.459l4.818-28.51h5.91l4.756,28.51h-4.491l-1.014-6.549Zm2.245-15.427L338.378,380.4h3.181Z" transform="translate(-143.464)"/><path class="a" d="M413.63,379.2l-5.738-16.568H412.6l3.181,10.238,3.15-10.238h4.74L417.9,379.2v11.942H413.63Z" transform="translate(-205.625)"/><path class="a" d="M514.557,391.138h-4.272v-28.51h6.143l3.992,20.445,3.836-20.445h5.909v28.51h-4.288V373.225l-3.711,17.913h-3.446l-4.163-17.866Z" transform="translate(-289.735)"/><path class="a" d="M642.109,384.589l-1.044,6.549H636.6l4.818-28.51h5.91l4.756,28.51H647.6l-1.013-6.549Zm2.246-15.427L642.764,380.4h3.181Z" transform="translate(-393.499)"/><path class="a" d="M742.6,382.135v9h-4.3v-28.51h4.3v10.16l5.208-10.16H752.4l-5.863,11.661,6.86,16.85h-5.036l-4.49-11.551Z" transform="translate(-477.036)"/><path class="a" d="M837.2,391.138v-28.51h12.193v4.3h-7.921v7.8h5.785v4.314h-5.785v7.8h7.921v4.3Z" transform="translate(-558.278)"/><path class="a" d="M923.465,362.628q3.586,0,5.255,1.985a7.184,7.184,0,0,1,1.481,4.814v4.142a6.633,6.633,0,0,1-2.292,5.111l3.181,12.457h-4.631l-2.62-10.769q-.187.016-.39.015h-2.464v10.754h-4.272v-28.51Zm2.557,6.878a2.18,2.18,0,0,0-2.448-2.485h-2.589v9.112h2.589a2.324,2.324,0,0,0,1.731-.719,2.421,2.421,0,0,0,.717-1.751Z" transform="translate(-623.592)"/><rect class="a" width="143.76" height="3.854" transform="translate(157.571 440.097)"/><rect class="a" width="29.677" height="3.854" transform="translate(271.654 448.576)"/><text class="b" transform="translate(157.57 400.628)"><tspan x="0" y="36">PORTAL</tspan></text></g></svg>