<svg xmlns="http://www.w3.org/2000/svg" xmlns:xlink="http://www.w3.org/1999/xlink" width="184" height="184" viewBox="0 0 184 184"><defs><style>.a,.k{fill:#fff;}.a{stroke:#707070;}.b{clip-path:url(#a);}.c{fill:#e0e0e0;}.d{opacity:0.5;}.e{fill:url(#b);}.f{fill:#fafafa;}.g{fill:url(#c);}.h{fill:url(#d);}.i{fill:gray;}.j{fill:url(#e);}.l{fill:url(#g);}.m{fill:#dcdcdc;}</style><clipPath id="a"><rect class="a" width="184" height="184" transform="translate(0.38 -0.432)"/></clipPath><linearGradient id="b" x1="0.509" y1="0.997" x2="0.509" y2="-0.003" gradientUnits="objectBoundingBox"><stop offset="0" stop-color="gray" stop-opacity="0.251"/><stop offset="0.54" stop-color="gray" stop-opacity="0.122"/><stop offset="1" stop-color="gray" stop-opacity="0.102"/></linearGradient><linearGradient id="c" x1="0.813" y1="0.841" x2="0.813" y2="-0.159" xlink:href="#b"/><linearGradient id="d" x1="1.78" y1="0.849" x2="1.78" y2="-0.151" xlink:href="#b"/><linearGradient id="e" x1="0.5" y1="1" x2="0.5" y2="0" xlink:href="#b"/><linearGradient id="g" x1="0.5" y1="0.999" x2="0.5" y2="-0.001" xlink:href="#b"/></defs><g class="b" transform="translate(-0.38 0.432)"><g transform="translate(0.147 4.407)"><rect class="c" width="97.848" height="135.194" transform="translate(15.476 30.336) rotate(-12.11)"/><g class="d" transform="translate(17.573 12.39)"><rect class="e" width="94.541" height="130.625" transform="translate(0 19.834) rotate(-12.11)"/></g><rect class="f" width="92.134" height="127.739" transform="translate(18.951 32.912) rotate(-12.11)"/><rect class="g" width="45.707" height="11.072" transform="translate(40.604 22.602) rotate(-12.11)"/><path class="h" d="M56.349,10.824a6.542,6.542,0,0,0,2.738,12.791,6.542,6.542,0,0,0-2.738-12.791Zm2.165,10.1a3.775,3.775,0,1,1,2.812-4.478,3.73,3.73,0,0,1-2.812,4.478Z" transform="translate(4.329 -3.59)"/><rect class="i" width="44.744" height="10.584" transform="translate(40.975 22.036) rotate(-12.11)"/><path class="i" d="M56.31,10.824a6.253,6.253,0,1,0,7.427,4.8,6.253,6.253,0,0,0-7.427-4.8Zm2.069,9.65a3.609,3.609,0,1,1,2.772-4.285,3.609,3.609,0,0,1-2.772,4.285Z" transform="translate(4.369 -3.59)"/><rect class="c" width="97.848" height="135.194" transform="translate(57.741 26.176)"/><g class="d" transform="translate(59.396 28.462)"><rect class="j" width="94.541" height="130.624"/></g><rect class="k" width="92.134" height="127.738" transform="translate(60.598 29.425)"/><rect class="j" width="45.707" height="11.072" transform="translate(83.933 23.885)"/><path class="l" d="M81.1,13.812a6.544,6.544,0,1,0,6.39,6.542A6.468,6.468,0,0,0,81.1,13.812Zm0,10.317a3.775,3.775,0,1,1,3.685-3.775A3.73,3.73,0,0,1,81.1,24.111Z" transform="translate(25.681 -0.734)"/><rect class="i" width="44.744" height="10.584" transform="translate(84.414 23.411)"/><path class="i" d="M81.04,13.812a6.253,6.253,0,1,0,6.253,6.253,6.253,6.253,0,0,0-6.253-6.253Zm0,9.863a3.618,3.618,0,1,0,0-.011Z" transform="translate(25.746 -0.734)"/><g transform="translate(1.453 165.024)"><rect class="m" width="0.842" height="4.776" transform="translate(1.966)"/><rect class="m" width="0.842" height="4.776" transform="translate(4.776 1.968) rotate(90)"/></g><g transform="translate(99.122)"><rect class="m" width="0.842" height="4.776" transform="translate(1.966)"/><rect class="m" width="0.842" height="4.776" transform="translate(4.776 1.966) rotate(90)"/></g><path class="m" d="M114.13,98.314a1.032,1.032,0,0,1-.575-1.247.5.5,0,0,0,.022-.114h0a.517.517,0,0,0-.929-.343h0a.5.5,0,0,0-.058.1,1.032,1.032,0,0,1-1.247.575.5.5,0,0,0-.114-.022h0a.517.517,0,0,0-.343.929h0a.5.5,0,0,0,.1.058,1.032,1.032,0,0,1,.575,1.247.5.5,0,0,0-.022.114h0a.517.517,0,0,0,.929.343h0a.5.5,0,0,0,.058-.1,1.032,1.032,0,0,1,1.247-.575.5.5,0,0,0,.114.022h0a.517.517,0,0,0,.343-.929h0A.5.5,0,0,0,114.13,98.314Z" transform="translate(58.513 74.661)"/><path class="m" d="M39.873,74.312a1.032,1.032,0,0,1-.575-1.247.5.5,0,0,0,.022-.114h0a.517.517,0,0,0-.929-.343h0a.5.5,0,0,0-.058.1,1.032,1.032,0,0,1-1.247.575.5.5,0,0,0-.114-.022h0a.517.517,0,0,0-.343.929h0a.5.5,0,0,0,.1.058,1.032,1.032,0,0,1,.575,1.247.5.5,0,0,0-.022.114h0a.517.517,0,0,0,.929.343h0a.5.5,0,0,0,.058-.1,1.032,1.032,0,0,1,1.247-.575.5.5,0,0,0,.114.022h0a.517.517,0,0,0,.343-.929h0a.5.5,0,0,0-.1-.058Z" transform="translate(-9.273 52.751)"/><path class="m" d="M101.723,15.867a1.032,1.032,0,0,1-.575-1.247.5.5,0,0,0,.022-.114h0a.517.517,0,0,0-.929-.343h0a.5.5,0,0,0-.058.1,1.032,1.032,0,0,1-1.247.575.5.5,0,0,0-.114-.022h0a.517.517,0,0,0-.343.929h0a.5.5,0,0,0,.1.058,1.032,1.032,0,0,1,.575,1.247.5.5,0,0,0-.022.114h0a.517.517,0,0,0,.929.343h0a.5.5,0,0,0,.058-.1,1.032,1.032,0,0,1,1.247-.575.5.5,0,0,0,.114.022h0a.517.517,0,0,0,.343-.929h0a.5.5,0,0,0-.1-.058Z" transform="translate(47.187 -0.601)"/><circle class="m" cx="1.686" cy="1.686" r="1.686" transform="translate(180.262 68.723)"/><circle class="m" cx="1.686" cy="1.686" r="1.686" transform="translate(49.974 165.487)"/><circle class="m" cx="1.686" cy="1.686" r="1.686" transform="translate(162.948 105.165)"/><circle class="m" cx="1.686" cy="1.686" r="1.686" transform="translate(17.825 19.887)"/><circle class="m" cx="1.686" cy="1.686" r="1.686" transform="translate(0 65.877)"/></g></g></svg>